<svg version="1.1" id="Layer_1" xmlns="http://www.w3.org/2000/svg" xmlns:xlink="http://www.w3.org/1999/xlink" x="0px" y="0px"
	 width="100%" viewBox="0 0 100 100" enable-background="new 0 0 100 100" xml:space="preserve">
<path fill="#FCF6F1" opacity="1.000000" stroke="none" 
	d="
M65.000000,101.000000 
	C57.979053,101.000000 50.958103,101.000000 43.424370,100.533035 
	C42.903561,92.402794 42.976772,84.737869 42.823135,77.077507 
	C42.790005,75.425552 42.386795,72.846237 41.363506,72.360901 
	C39.693211,71.568703 37.372955,72.146881 35.326931,72.146881 
	C35.344425,72.613724 35.361923,73.080559 35.379417,73.547401 
	C37.111153,73.773705 38.842884,74.000008 40.807018,74.256676 
	C40.807018,82.960587 40.807018,91.429558 40.353737,99.941406 
	C30.429802,99.997093 20.959150,100.014923 11.488488,100.021286 
	C1.977329,100.027687 2.092997,100.020737 1.935079,90.634735 
	C1.836119,84.752914 1.325768,78.878006 1.000000,73.000000 
	C1.000000,59.312439 1.000000,45.624878 1.439863,31.462923 
	C3.457202,31.078375 5.034678,31.168219 6.670607,31.261393 
	C6.670607,45.403904 6.670607,59.115204 6.670607,72.826500 
	C6.954292,72.827980 7.237978,72.829453 7.521663,72.830925 
	C7.521663,58.486473 7.521663,44.142021 7.521663,29.426622 
	C5.226721,29.628391 3.113360,29.814196 1.000000,30.000000 
	C1.000000,29.555555 1.000000,29.111111 1.304157,28.046597 
	C1.405543,19.617685 1.202771,11.808843 1.000000,4.000000 
	C1.000000,3.555556 1.000000,3.111111 1.340302,2.477702 
	C12.580188,2.272841 23.479912,2.274732 34.378937,2.188385 
	C34.922394,2.184079 35.459785,1.413683 36.000000,1.000000 
	C43.354252,1.000000 50.708500,1.000000 58.353848,1.378654 
	C58.594925,10.522574 58.506691,19.288048 58.553787,28.052794 
	C58.558517,28.932989 59.383263,29.808781 60.274632,30.759209 
	C62.086758,30.990717 63.451698,31.149633 64.931213,31.321890 
	C64.931213,35.606503 65.115997,39.381268 64.809502,43.115707 
	C64.726303,44.129436 63.159962,45.021439 62.173401,45.603142 
	C60.082058,42.029694 58.091644,38.822414 56.262009,35.347046 
	C55.314255,32.321560 54.205715,29.564152 52.620781,25.621733 
	C51.696510,28.552418 51.303120,29.799789 50.593712,30.913506 
	C49.144451,28.593763 48.011200,26.407679 47.040478,23.971775 
	C48.053139,23.468994 48.903267,23.216036 50.128197,22.851553 
	C48.573917,20.466145 47.122543,18.238672 45.382736,15.568534 
	C44.519497,17.249588 44.006611,18.248367 43.259590,19.038925 
	C42.321121,17.562729 41.616787,16.294758 41.228325,14.862097 
	C44.807251,11.665167 41.755737,9.545442 40.162601,7.626788 
	C39.523178,6.856714 37.365486,7.347322 35.619987,7.003954 
	C33.602844,5.890488 31.884027,4.349621 30.122972,4.299736 
	C21.228163,4.047771 12.322359,4.183902 3.526411,4.183902 
	C3.526411,12.420164 3.526411,19.811853 3.526411,27.284393 
	C5.795212,27.465000 7.731888,27.619167 9.711133,27.776724 
	C9.711133,43.704365 9.711133,59.414112 9.711133,75.249245 
	C7.489429,75.480766 5.548489,75.683029 3.494962,75.897026 
	C3.494962,83.546066 3.494962,90.942764 3.494962,98.462952 
	C15.506876,98.462952 27.204794,98.462952 38.840572,98.462952 
	C38.840572,90.695480 38.840572,83.285110 38.840572,75.854500 
	C36.638489,75.558899 34.733776,75.303215 32.861061,75.051826 
	C32.861061,65.185081 32.861061,55.683434 32.861061,46.181782 
	C33.149765,46.078907 33.438465,45.976032 33.727169,45.873158 
	C34.934612,48.093784 36.142056,50.314415 37.078995,52.729004 
	C36.698082,54.054855 36.587669,55.186745 36.477261,56.318630 
	C36.894577,56.309380 37.311890,56.300129 37.729206,56.290874 
	C37.607662,55.049419 37.486122,53.807961 37.722137,52.803253 
	C38.814259,54.773731 39.548824,56.507462 39.959099,58.178886 
	C39.123035,58.402885 38.611267,58.689194 38.099495,58.975502 
	C39.888947,61.809612 41.672062,64.647987 43.540115,67.429306 
	C43.563431,67.464020 44.674187,66.768364 45.712322,66.249878 
	C46.538792,67.082504 46.930294,68.078865 46.984726,69.042763 
	C46.208157,69.438507 45.318130,70.116753 45.396324,70.257637 
	C46.696373,72.600052 47.976921,74.984917 49.614365,77.085487 
	C50.007648,77.589996 51.676132,77.100456 53.099258,77.117325 
	C54.333622,78.702591 55.226883,80.238617 55.942123,81.984123 
	C54.568615,81.493439 53.373135,80.793266 52.177654,80.093102 
	C51.894741,80.402512 51.611824,80.711929 51.328911,81.021339 
	C53.586315,83.667290 55.843716,86.313240 58.421654,89.057396 
	C59.149132,90.136482 59.556072,91.117371 59.945854,92.436096 
	C60.066895,96.342339 62.229832,94.073677 63.934017,94.193680 
	C65.305420,95.847115 66.356117,97.358917 67.065483,98.937767 
	C65.800484,99.053429 64.876823,99.102058 63.689480,99.164558 
	C64.278664,99.989731 64.639328,100.494865 65.000000,101.000000 
M63.334892,96.379288 
	C63.019444,96.616898 62.703999,96.854507 62.388550,97.092117 
	C62.580231,97.288559 62.771912,97.485008 62.963596,97.681450 
	C63.210766,97.377670 63.457939,97.073883 63.334892,96.379288 
M36.170017,3.351374 
	C36.371738,3.351763 36.573463,3.352153 36.775185,3.352543 
	C36.674698,3.244986 36.574215,3.137429 36.170017,3.351374 
z"/>
<path fill="#FCF6F1" opacity="1.000000" stroke="none" 
	d="
M100.000000,101.000000 
	C99.555557,101.000000 99.111107,101.000000 98.046593,100.695847 
	C89.305786,100.268692 81.183456,100.202629 73.065590,99.976601 
	C71.359657,99.929115 69.670082,99.293800 68.441299,98.880814 
	C78.474655,98.832275 88.039673,98.832275 97.457153,98.832275 
	C97.457153,90.553444 97.457153,83.161995 97.457153,75.728119 
	C95.174118,75.537437 93.242500,75.376106 91.277893,75.212021 
	C91.277893,59.243969 91.277893,43.520885 91.277893,27.785868 
	C93.512779,27.558104 95.460838,27.359571 97.519592,27.149759 
	C97.519592,19.473961 97.519592,12.082007 97.519592,4.520567 
	C85.516830,4.520567 73.812851,4.520567 62.153141,4.520567 
	C62.153141,12.278118 62.153141,19.695311 62.153141,27.092823 
	C64.355743,27.409578 66.261177,27.683598 68.088615,27.946400 
	C68.088615,37.802845 68.088615,47.275230 68.088615,56.747612 
	C67.731903,56.843811 67.375198,56.940006 67.018486,57.036201 
	C66.278763,55.109142 65.539040,53.182083 65.206573,51.102093 
	C66.038483,46.018955 66.686218,41.095428 66.834190,36.156933 
	C67.043175,29.182165 66.885208,29.177433 59.889046,28.598740 
	C59.834412,19.558186 59.834412,10.987961 59.834412,2.471766 
	C73.482857,2.471766 86.384773,2.471766 99.542770,2.471766 
	C99.542770,11.515733 99.542770,20.234703 99.542770,29.125086 
	C97.318428,29.364473 95.381279,29.572954 93.682358,29.755796 
	C93.682358,44.602505 93.682358,59.226215 93.682358,73.849922 
	C94.031326,73.841988 94.380302,73.834045 94.729271,73.826111 
	C94.729271,59.668301 94.729271,45.510498 94.729271,31.000000 
	C97.068291,31.000000 99.034142,31.000000 101.000000,31.000000 
	C101.000000,44.687561 101.000000,58.375122 100.608498,72.547745 
	C100.144661,82.355202 100.072334,91.677597 100.000000,101.000000 
z"/>
<path fill="#CF230E" opacity="1.000000" stroke="none" 
	d="
M101.000000,30.531342 
	C99.034142,31.000000 97.068291,31.000000 94.729271,31.000000 
	C94.729271,45.510498 94.729271,59.668301 94.729271,73.826111 
	C94.380302,73.834045 94.031326,73.841988 93.682358,73.849922 
	C93.682358,59.226215 93.682358,44.602505 93.682358,29.755796 
	C95.381279,29.572954 97.318428,29.364473 99.542770,29.125086 
	C99.542770,20.234703 99.542770,11.515733 99.542770,2.471766 
	C86.384773,2.471766 73.482857,2.471766 59.834412,2.471766 
	C59.834412,10.987961 59.834412,19.558186 59.796360,28.859318 
	C59.781353,29.955688 59.804401,30.321152 59.827446,30.686617 
	C59.383263,29.808781 58.558517,28.932989 58.553787,28.052794 
	C58.506691,19.288048 58.594925,10.522574 58.822472,1.378654 
	C72.914375,1.000000 86.828743,1.000000 101.000000,1.000000 
	C101.000000,10.686050 101.000000,20.374369 101.000000,30.531342 
z"/>
<path fill="#E1796A" opacity="1.000000" stroke="none" 
	d="
M40.807018,99.898529 
	C40.807018,91.429558 40.807018,82.960587 40.807018,74.256676 
	C38.842884,74.000008 37.111153,73.773705 35.379417,73.547401 
	C35.361923,73.080559 35.344425,72.613724 35.326931,72.146881 
	C37.372955,72.146881 39.693211,71.568703 41.363506,72.360901 
	C42.386795,72.846237 42.790005,75.425552 42.823135,77.077507 
	C42.976772,84.737869 42.903561,92.402794 42.955788,100.533035 
	C42.555553,101.000000 42.111111,101.000000 41.283646,100.724884 
	C40.869427,100.266022 40.838223,100.082275 40.807018,99.898529 
z"/>
<path fill="#F2C6BD" opacity="1.000000" stroke="none" 
	d="
M40.353737,99.941406 
	C40.838223,100.082275 40.869427,100.266022 40.950317,100.724884 
	C27.753050,101.000000 14.506101,101.000000 1.000000,101.000000 
	C1.000000,91.980759 1.000000,82.959038 1.000000,73.468658 
	C1.325768,78.878006 1.836119,84.752914 1.935079,90.634735 
	C2.092997,100.020737 1.977329,100.027687 11.488488,100.021286 
	C20.959150,100.014923 30.429802,99.997093 40.353737,99.941406 
z"/>
<path fill="#CF230E" opacity="1.000000" stroke="none" 
	d="
M1.000000,30.250000 
	C3.113360,29.814196 5.226721,29.628391 7.521663,29.426622 
	C7.521663,44.142021 7.521663,58.486473 7.521663,72.830925 
	C7.237978,72.829453 6.954292,72.827980 6.670607,72.826500 
	C6.670607,59.115204 6.670607,45.403904 6.670607,31.261393 
	C5.034678,31.168219 3.457202,31.078375 1.439863,30.994267 
	C1.000000,31.000000 1.000000,30.500000 1.000000,30.250000 
z"/>
<path fill="#F2C6BD" opacity="1.000000" stroke="none" 
	d="
M67.972969,98.929359 
	C69.670082,99.293800 71.359657,99.929115 73.065590,99.976601 
	C81.183456,100.202629 89.305786,100.268692 97.713257,100.695847 
	C87.312439,101.000000 76.624878,101.000000 65.468658,101.000000 
	C64.639328,100.494865 64.278664,99.989731 63.689480,99.164558 
	C64.876823,99.102058 65.800484,99.053429 67.214661,98.878693 
	C67.705170,98.752571 67.972969,98.929359 67.972969,98.929359 
z"/>
<path fill="#CF230E" opacity="1.000000" stroke="none" 
	d="
M35.531342,1.000000 
	C35.459785,1.413683 34.922394,2.184079 34.378937,2.188385 
	C23.479912,2.274732 12.580188,2.272841 1.340302,2.144369 
	C1.818961,1.666667 2.636153,1.048304 3.457152,1.043206 
	C13.992012,0.977787 24.527416,1.000000 35.531342,1.000000 
z"/>
<path fill="#CF230E" opacity="1.000000" stroke="none" 
	d="
M100.500000,101.000000 
	C100.072334,91.677597 100.144661,82.355202 100.608498,73.016403 
	C101.000000,82.333336 101.000000,91.666664 100.500000,101.000000 
z"/>
<path fill="#F2C6BD" opacity="1.000000" stroke="none" 
	d="
M1.000000,4.468636 
	C1.202771,11.808843 1.405543,19.617685 1.304157,27.713264 
	C1.000000,20.312424 1.000000,12.624847 1.000000,4.468636 
z"/>
<path fill="#CF230E" opacity="1.000000" stroke="none" 
	d="
M68.441299,98.880814 
	C67.972969,98.929359 67.705170,98.752571 67.556000,98.811646 
	C66.356117,97.358917 65.305420,95.847115 63.718887,94.011147 
	C62.109715,93.157410 61.036362,92.627831 59.963009,92.098251 
	C59.556072,91.117371 59.149132,90.136482 58.451256,88.708786 
	C57.480259,86.099525 56.800201,83.937080 56.120144,81.774643 
	C55.226883,80.238617 54.333622,78.702591 53.070221,77.120331 
	C52.700085,77.074097 52.740437,77.102837 52.838776,76.758072 
	C52.806728,76.213013 52.676334,76.012711 52.411339,75.492340 
	C51.213978,73.684998 50.151230,72.197731 49.067406,70.669983 
	C49.046337,70.629517 48.975483,70.572014 48.789772,70.500916 
	C48.604061,70.429810 48.372787,70.753365 48.452034,70.346611 
	C48.078487,69.723427 47.625687,69.506989 47.217304,69.241699 
	C47.261719,69.192833 47.321800,69.075226 47.321800,69.075226 
	C46.930294,68.078865 46.538792,67.082504 45.659565,66.247635 
	C45.171841,66.409134 45.143211,66.510803 45.524734,66.058861 
	C45.725502,65.256493 45.544754,64.906059 45.282761,64.241150 
	C44.196461,62.535831 43.191399,61.144993 41.892548,59.561768 
	C41.413971,59.513119 41.229176,59.656857 41.026253,59.869240 
	C41.008129,59.937878 41.147789,59.963463 41.353699,59.538685 
	C41.067230,58.869484 40.574852,58.625061 40.144119,58.362225 
	C40.205765,58.343811 40.283394,58.241192 40.283394,58.241192 
	C39.548824,56.507462 38.814259,54.773731 37.699165,52.819294 
	C37.318634,52.598587 37.349499,52.535042 37.349499,52.535042 
	C36.142056,50.314415 34.934612,48.093784 33.727169,45.873158 
	C33.438465,45.976032 33.149765,46.078907 32.861061,46.181782 
	C32.861061,55.683434 32.861061,65.185081 32.861061,75.051826 
	C34.733776,75.303215 36.638489,75.558899 38.840572,75.854500 
	C38.840572,83.285110 38.840572,90.695480 38.840572,98.462952 
	C27.204794,98.462952 15.506876,98.462952 3.494962,98.462952 
	C3.494962,90.942764 3.494962,83.546066 3.494962,75.897026 
	C5.548489,75.683029 7.489429,75.480766 9.711133,75.249245 
	C9.711133,59.414112 9.711133,43.704365 9.711133,27.776724 
	C7.731888,27.619167 5.795212,27.465000 3.526411,27.284393 
	C3.526411,19.811853 3.526411,12.420164 3.526411,4.183902 
	C12.322359,4.183902 21.228163,4.047771 30.122972,4.299736 
	C31.884027,4.349621 33.602844,5.890488 35.690407,7.331873 
	C37.663929,10.288906 39.288193,12.657847 40.912457,15.026789 
	C41.616787,16.294758 42.321121,17.562729 43.390518,19.351944 
	C44.796375,21.322657 45.837162,22.772125 46.877953,24.221596 
	C48.011200,26.407679 49.144451,28.593763 50.736252,31.221096 
	C52.830284,32.979942 54.465755,34.297535 56.101231,35.615131 
	C58.091644,38.822414 60.082058,42.029694 61.912270,45.569672 
	C62.221413,46.935730 62.690762,47.969090 63.089661,49.395969 
	C63.655148,50.237118 64.291092,50.684742 64.875717,51.142845 
	C64.824394,51.153320 64.799316,51.255024 64.799316,51.255024 
	C65.539040,53.182083 66.278763,55.109142 67.018486,57.036201 
	C67.375198,56.940006 67.731903,56.843811 68.088615,56.747612 
	C68.088615,47.275230 68.088615,37.802845 68.088615,27.946400 
	C66.261177,27.683598 64.355743,27.409578 62.153141,27.092823 
	C62.153141,19.695311 62.153141,12.278118 62.153141,4.520567 
	C73.812851,4.520567 85.516830,4.520567 97.519592,4.520567 
	C97.519592,12.082007 97.519592,19.473961 97.519592,27.149759 
	C95.460838,27.359571 93.512779,27.558104 91.277893,27.785868 
	C91.277893,43.520885 91.277893,59.243969 91.277893,75.212021 
	C93.242500,75.376106 95.174118,75.537437 97.457153,75.728119 
	C97.457153,83.161995 97.457153,90.553444 97.457153,98.832275 
	C88.039673,98.832275 78.474655,98.832275 68.441299,98.880814 
z"/>
<path fill="#E1796A" opacity="1.000000" stroke="none" 
	d="
M63.160114,49.002449 
	C62.690762,47.969090 62.221413,46.935730 62.013199,45.935841 
	C63.159962,45.021439 64.726303,44.129436 64.809502,43.115707 
	C65.115997,39.381268 64.931213,35.606503 64.931213,31.321890 
	C63.451698,31.149633 62.086758,30.990717 60.274632,30.759209 
	C59.804401,30.321152 59.781353,29.955688 59.850990,29.329647 
	C66.885208,29.177433 67.043175,29.182165 66.834190,36.156933 
	C66.686218,41.095428 66.038483,46.018955 65.206573,51.102093 
	C64.799316,51.255024 64.824394,51.153320 64.943100,50.822308 
	C64.427910,49.995014 63.794014,49.498730 63.160114,49.002449 
z"/>
<path fill="#F9E6DF" opacity="1.000000" stroke="none" 
	d="
M41.228325,14.862097 
	C39.288193,12.657847 37.663929,10.288906 35.969254,7.592047 
	C37.365486,7.347322 39.523178,6.856714 40.162601,7.626788 
	C41.755737,9.545442 44.807251,11.665167 41.228325,14.862097 
M38.575451,7.517241 
	C38.575451,7.517241 38.465870,7.578427 38.575451,7.517241 
z"/>
<path fill="#F9E6DF" opacity="1.000000" stroke="none" 
	d="
M56.262009,35.347046 
	C54.465755,34.297535 52.830284,32.979942 51.052269,31.354755 
	C51.303120,29.799789 51.696510,28.552418 52.620781,25.621733 
	C54.205715,29.564152 55.314255,32.321560 56.262009,35.347046 
z"/>
<path fill="#F9E6DF" opacity="1.000000" stroke="none" 
	d="
M49.088478,70.710457 
	C50.151230,72.197731 51.213978,73.684998 52.149185,75.621735 
	C52.261238,76.415085 52.500835,76.758957 52.740437,77.102837 
	C52.740437,77.102837 52.700085,77.074097 52.729118,77.071091 
	C51.676132,77.100456 50.007648,77.589996 49.614365,77.085487 
	C47.976921,74.984917 46.696373,72.600052 45.396324,70.257637 
	C45.318130,70.116753 46.208157,69.438507 46.984726,69.042763 
	C47.321800,69.075226 47.261719,69.192833 47.261971,69.595688 
	C47.632412,70.250153 48.002598,70.501755 48.372787,70.753365 
	C48.372787,70.753365 48.604061,70.429810 48.582443,70.607529 
	C48.736710,70.760323 48.912594,70.735390 49.088478,70.710457 
z"/>
<path fill="#F2C6BD" opacity="1.000000" stroke="none" 
	d="
M39.959099,58.178886 
	C40.283394,58.241192 40.205765,58.343811 40.201157,58.696724 
	C40.513634,59.354244 40.830711,59.658852 41.147789,59.963463 
	C41.147789,59.963463 41.008129,59.937878 41.121544,60.078262 
	C41.552086,60.063812 41.869209,59.908985 42.186337,59.754158 
	C43.191399,61.144993 44.196461,62.535831 45.029099,64.425873 
	C44.952190,65.453651 45.047703,65.982231 45.143211,66.510803 
	C45.143211,66.510803 45.171841,66.409134 45.224598,66.411377 
	C44.674187,66.768364 43.563431,67.464020 43.540115,67.429306 
	C41.672062,64.647987 39.888947,61.809612 38.099495,58.975502 
	C38.611267,58.689194 39.123035,58.402885 39.959099,58.178886 
z"/>
<path fill="#F9E6DF" opacity="1.000000" stroke="none" 
	d="
M55.942123,81.984123 
	C56.800201,83.937080 57.480259,86.099525 58.130714,88.610580 
	C55.843716,86.313240 53.586315,83.667290 51.328911,81.021339 
	C51.611824,80.711929 51.894741,80.402512 52.177654,80.093102 
	C53.373135,80.793266 54.568615,81.493439 55.942123,81.984123 
z"/>
<path fill="#F9E6DF" opacity="1.000000" stroke="none" 
	d="
M47.040482,23.971773 
	C45.837162,22.772125 44.796375,21.322657 43.624657,19.560169 
	C44.006611,18.248367 44.519497,17.249588 45.382736,15.568534 
	C47.122543,18.238672 48.573917,20.466145 50.128197,22.851553 
	C48.903267,23.216036 48.053139,23.468994 47.040482,23.971773 
z"/>
<path fill="#F9E6DF" opacity="1.000000" stroke="none" 
	d="
M59.945854,92.436096 
	C61.036362,92.627831 62.109715,93.157410 63.398193,93.869522 
	C62.229832,94.073677 60.066895,96.342339 59.945854,92.436096 
z"/>
<path fill="#F2C6BD" opacity="1.000000" stroke="none" 
	d="
M37.078995,52.729004 
	C37.349499,52.535042 37.318634,52.598587 37.341606,52.582546 
	C37.486122,53.807961 37.607662,55.049419 37.729206,56.290874 
	C37.311890,56.300129 36.894577,56.309380 36.477261,56.318630 
	C36.587669,55.186745 36.698082,54.054855 37.078995,52.729004 
z"/>
<path fill="#F9E6DF" opacity="1.000000" stroke="none" 
	d="
M63.520004,96.574692 
	C63.457939,97.073883 63.210766,97.377670 62.963593,97.681450 
	C62.771912,97.485008 62.580231,97.288559 62.388550,97.092117 
	C62.703999,96.854507 63.019444,96.616898 63.520004,96.574692 
z"/>
<path fill="#CF230E" opacity="1.000000" stroke="none" 
	d="
M36.321873,3.190623 
	C36.574215,3.137429 36.674698,3.244986 36.775185,3.352542 
	C36.573463,3.352153 36.371738,3.351763 36.321873,3.190623 
z"/>
<path fill="#FCF6F1" opacity="1.000000" stroke="none" 
	d="
M63.089661,49.395969 
	C63.794014,49.498730 64.427910,49.995014 64.994423,50.811829 
	C64.291092,50.684742 63.655148,50.237118 63.089661,49.395969 
z"/>
<path fill="#FCF6F1" opacity="1.000000" stroke="none" 
	d="
M45.524734,66.058861 
	C45.047703,65.982231 44.952190,65.453651 45.110344,64.740356 
	C45.544754,64.906059 45.725502,65.256493 45.524734,66.058861 
z"/>
<path fill="#FCF6F1" opacity="1.000000" stroke="none" 
	d="
M48.452034,70.346611 
	C48.002598,70.501755 47.632412,70.250153 47.217556,69.644547 
	C47.625687,69.506989 48.078487,69.723427 48.452034,70.346611 
z"/>
<path fill="#FCF6F1" opacity="1.000000" stroke="none" 
	d="
M49.067406,70.669983 
	C48.912594,70.735390 48.736710,70.760323 48.768154,70.678635 
	C48.975483,70.572014 49.046337,70.629517 49.067406,70.669983 
z"/>
<path fill="#FCF6F1" opacity="1.000000" stroke="none" 
	d="
M41.892548,59.561768 
	C41.869209,59.908985 41.552086,60.063812 41.139668,60.009621 
	C41.229176,59.656857 41.413971,59.513119 41.892548,59.561768 
z"/>
<path fill="#FCF6F1" opacity="1.000000" stroke="none" 
	d="
M41.353699,59.538685 
	C40.830711,59.658852 40.513634,59.354244 40.139511,58.715137 
	C40.574852,58.625061 41.067230,58.869484 41.353699,59.538685 
z"/>
<path fill="#FCF6F1" opacity="1.000000" stroke="none" 
	d="
M52.838776,76.758072 
	C52.500835,76.758957 52.261238,76.415085 52.283791,75.941803 
	C52.676334,76.012711 52.806728,76.213013 52.838776,76.758072 
z"/>
<path fill="#FCF6F1" opacity="1.000000" stroke="none" 
	d="
M38.520660,7.547834 
	C38.465870,7.578427 38.575451,7.517241 38.520660,7.547834 
z"/>
</svg>