<svg version="1.1" id="Layer_1" xmlns="http://www.w3.org/2000/svg" xmlns:xlink="http://www.w3.org/1999/xlink" x="0px" y="0px"
	 width="100%" viewBox="0 0 198 50" enable-background="new 0 0 198 50" xml:space="preserve">
<path fill="#FEFDFC" opacity="1.000000" stroke="none" 
	d="
M199.000000,30.000000 
	C199.000000,36.993744 199.000000,43.987488 199.000000,50.985924 
	C133.065247,50.990616 67.130486,50.990616 1.097862,50.990616 
	C1.097862,34.413982 1.097862,17.827196 1.097862,1.120204 
	C66.999847,1.120204 132.999893,1.120204 199.000000,1.120204 
	C199.000000,8.408969 199.000000,15.735747 198.642029,23.672802 
	C196.251419,24.472120 194.126953,24.398731 192.257172,25.053082 
	C191.841431,25.198572 191.831009,28.914740 192.488876,29.235960 
	C194.080688,30.013184 196.176758,29.757551 198.069534,29.918541 
	C198.379761,29.944925 198.689850,29.972809 199.000000,30.000000 
M103.232758,18.752262 
	C104.319565,16.447708 105.406380,14.143152 106.493187,11.838597 
	C106.836327,11.916040 107.179474,11.993483 107.522614,12.070925 
	C107.522614,14.617171 107.522614,17.163418 107.522614,19.990601 
	C109.284424,19.990601 110.500519,19.990601 111.772804,19.990601 
	C111.772804,14.325930 111.772804,8.907013 111.772804,3.570296 
	C103.343414,0.870205 105.525955,9.764810 101.919807,12.272900 
	C98.424660,9.458854 100.339149,0.615785 91.346634,3.781380 
	C91.346634,8.331943 91.266518,13.118545 91.424980,17.897236 
	C91.451591,18.699860 92.510551,19.468250 93.092522,20.252462 
	C93.692963,19.485044 94.713631,18.767342 94.811462,17.940454 
	C95.059555,15.843493 94.893852,13.697574 94.893852,11.571259 
	C96.955460,13.949238 97.744286,16.517664 99.164055,18.669863 
	C99.676964,19.447376 101.702736,19.226881 103.232758,18.752262 
M138.946075,15.517036 
	C140.294373,19.028492 142.050003,21.811867 146.886444,19.587151 
	C146.886444,15.148038 146.994370,10.532643 146.797104,5.930330 
	C146.756744,4.988947 145.571991,4.096615 144.914764,3.181671 
	C144.314209,4.153134 143.354477,5.068622 143.192429,6.108419 
	C142.908279,7.931817 143.113113,9.831415 143.113113,12.207272 
	C138.650452,9.464466 140.051682,1.024810 131.968857,3.650563 
	C131.968857,8.440144 131.909973,13.379567 132.039917,18.314018 
	C132.057053,18.964901 133.038055,19.590405 133.572647,20.227665 
	C134.140289,19.599167 135.125168,19.014936 135.197418,18.333878 
	C135.414490,16.287941 135.275589,14.204239 135.275589,10.720577 
	C137.040421,12.892634 137.821304,13.853697 138.946075,15.517036 
M11.405385,40.640198 
	C11.931300,42.325779 12.283015,44.095036 13.039458,45.669891 
	C13.621650,46.881973 14.712839,47.849571 15.577694,48.925880 
	C15.947217,48.621819 16.316740,48.317753 16.686262,48.013691 
	C16.686262,41.785904 16.686262,35.558121 16.686262,29.136368 
	C10.200914,29.200758 14.657381,34.766487 12.413553,36.632607 
	C10.654807,36.632607 8.928317,36.632607 7.190567,36.632607 
	C7.039651,34.016438 6.908565,31.744024 6.777478,29.471609 
	C6.311497,29.210224 5.845515,28.948837 5.379533,28.687450 
	C4.525353,29.834059 3.012948,30.937460 2.934338,32.134979 
	C2.640709,36.607998 2.860386,41.112415 2.802562,45.603958 
	C2.758977,48.989494 4.412835,49.028301 6.809301,47.989346 
	C7.233242,41.138577 7.233242,41.138577 11.405385,40.640198 
M122.490440,6.356043 
	C124.560265,6.251313 126.630089,6.146582 128.871887,6.033149 
	C127.384499,2.747095 123.712265,2.209102 116.634529,3.866116 
	C116.634529,9.177974 116.634529,14.545045 116.634529,20.293900 
	C120.036362,20.293900 123.165535,20.403631 126.277946,20.223642 
	C127.153854,20.172985 127.980583,19.272238 128.829865,18.761406 
	C127.904831,18.160931 127.042915,17.227026 126.040154,17.037224 
	C124.491440,16.744087 122.846390,16.959976 121.295738,16.959976 
	C120.173553,10.071487 126.633430,15.051998 128.072739,11.118515 
	C126.498184,10.764109 125.025246,10.197634 123.534843,10.147186 
	C120.645592,10.049391 120.646988,8.644781 122.490440,6.356043 
M153.580566,12.910873 
	C155.083786,13.725622 156.586990,14.540372 158.090195,15.355122 
	C157.989899,15.813388 157.889587,16.271654 157.789276,16.729921 
	C155.316284,16.856592 152.843277,16.983263 149.265762,17.166510 
	C150.411560,18.509228 151.250107,20.179647 151.868622,20.101809 
	C155.163422,19.687166 159.974365,19.936935 161.378418,17.935173 
	C166.336273,10.866731 156.329422,11.161297 154.484772,6.461268 
	C157.082077,6.461268 159.188278,6.461268 161.294464,6.461268 
	C161.502869,5.896614 161.711273,5.331959 161.919693,4.767304 
	C160.497330,4.177796 158.888626,2.848020 157.690567,3.149595 
	C155.020523,3.821693 152.555664,5.308932 150.007187,6.464007 
	C150.986374,8.496605 151.965561,10.529203 153.580566,12.910873 
M60.142876,6.191506 
	C61.074482,6.016459 62.006084,5.841413 62.937691,5.666368 
	C62.698963,4.937812 62.683052,3.937285 62.183048,3.527651 
	C59.985889,1.727596 53.192444,3.173518 51.893440,5.747938 
	C49.962719,9.574319 52.239567,11.503027 55.365555,13.082296 
	C56.779026,13.796391 58.013153,14.865478 59.328644,15.773512 
	C59.168045,16.211559 59.007446,16.649607 58.846848,17.087654 
	C56.412022,17.087654 53.977196,17.087654 51.542370,17.087654 
	C51.396309,17.750296 51.250248,18.412937 51.104187,19.075579 
	C53.264973,19.596167 55.577984,20.852558 57.546795,20.445236 
	C59.845219,19.969721 63.142132,18.469692 63.736553,16.666229 
	C65.818764,10.348801 58.500782,10.842134 55.585423,6.968466 
	C57.138527,6.602177 58.261208,6.337402 60.142876,6.191506 
M100.909904,43.434494 
	C100.910324,42.606766 100.652779,41.661667 100.964851,40.975727 
	C101.615135,39.546371 102.566704,38.254089 103.394470,36.905483 
	C103.911568,38.308502 104.728355,39.680359 104.878204,41.121563 
	C105.126579,43.510338 104.945770,45.943737 104.945770,49.019535 
	C111.831261,47.341595 108.627251,42.474514 108.880112,39.470875 
	C109.337845,34.033699 108.899315,33.996780 96.334137,34.152267 
	C96.334137,37.590549 96.132751,41.056385 96.430153,44.478874 
	C96.554573,45.910748 97.737732,47.250622 98.439522,48.632324 
	C99.262955,47.190777 100.086388,45.749233 100.909904,43.434494 
M34.754852,40.809608 
	C35.281567,43.008286 35.241486,46.659687 36.443119,47.128517 
	C39.813557,48.443523 43.696262,48.445557 47.698692,49.010975 
	C47.698692,43.760849 47.698692,39.202530 47.698692,34.739319 
	C39.490585,32.173565 37.151978,33.185276 34.754852,40.809608 
M81.120201,42.410789 
	C81.598930,44.788395 79.602135,48.942818 85.201859,48.346794 
	C85.201859,45.486385 85.209221,43.171165 85.200478,40.856007 
	C85.174713,34.027370 84.007126,32.978653 77.228928,33.824825 
	C77.082436,32.391407 76.936295,30.961515 76.790161,29.531624 
	C76.366875,29.256006 75.943596,28.980389 75.520317,28.704773 
	C74.614113,29.785313 72.998848,30.820232 72.925873,31.954382 
	C72.628212,36.580914 72.620064,41.250256 72.936089,45.874386 
	C73.011208,46.973499 74.753387,47.958675 75.728760,48.996262 
	C76.163002,48.669086 76.597244,48.341911 77.031487,48.014736 
	C77.031487,45.887821 76.762032,43.714794 77.115669,41.648399 
	C77.405151,39.956955 78.437164,38.392586 79.139992,36.771881 
	C79.800056,38.348953 80.460121,39.926029 81.120201,42.410789 
M24.251453,48.701309 
	C25.902485,48.756714 27.611311,49.092426 29.184053,48.768139 
	C30.217897,48.554974 31.055397,47.389584 31.980822,46.650612 
	C30.959686,46.284626 29.955500,45.857674 28.913166,45.567947 
	C27.583235,45.198280 26.222490,44.939476 24.875027,44.632885 
	C26.050043,43.164761 27.112158,42.835835 28.184593,42.544956 
	C31.501816,41.645226 33.417847,39.221802 31.745546,36.323898 
	C30.841114,34.756622 27.283323,33.568390 25.301619,33.990189 
	C19.273357,35.273289 18.424149,43.471287 24.251453,48.701309 
M113.447922,47.138515 
	C115.943260,47.671074 118.422867,48.417435 120.943741,48.602901 
	C121.677986,48.656925 122.530052,47.109577 123.328110,46.296268 
	C122.386246,46.047901 121.445129,45.796608 120.502335,45.551834 
	C119.013115,45.165195 117.522758,44.782928 116.032890,44.398811 
	C117.549156,43.034439 118.821358,42.709480 120.033028,42.231155 
	C123.071564,41.031654 124.867584,38.813694 123.331108,35.664173 
	C121.790016,32.505199 118.740013,32.780712 115.970802,34.014526 
	C111.771935,35.885323 110.719231,40.596306 113.447922,47.138515 
M131.267639,45.028568 
	C128.968323,41.528542 132.745377,43.586105 133.418823,42.767872 
	C134.770462,41.125652 136.847336,39.945679 137.762573,38.138264 
	C138.191772,37.290680 136.861237,34.467731 135.904877,34.227863 
	C133.895523,33.723888 131.319672,33.738171 129.492676,34.615238 
	C125.852196,36.362888 124.625954,42.574223 126.844482,45.910217 
	C128.864258,48.947365 131.851868,49.629860 135.120056,48.683815 
	C136.201630,48.370735 136.986023,47.031010 138.643768,45.463226 
	C135.450974,45.463226 133.717148,45.463226 131.267639,45.028568 
M84.335945,10.124302 
	C83.130516,9.455556 81.925095,8.786810 80.719666,8.118065 
	C81.828339,7.477306 82.896286,6.742649 84.063347,6.236516 
	C84.623337,5.993656 85.447876,6.367666 86.014343,6.131161 
	C86.776314,5.813035 87.404686,5.174901 88.090401,4.674124 
	C87.396698,4.161781 86.723106,3.242450 86.005836,3.207001 
	C82.767380,3.046951 79.516548,3.137093 76.313141,3.137093 
	C76.313141,9.197412 76.313141,14.576079 76.313141,20.171740 
	C79.951691,20.171740 83.256783,20.264748 86.548424,20.095743 
	C87.232704,20.060610 87.867142,19.054701 88.524551,18.496183 
	C87.831055,17.991552 87.179634,17.142029 86.435654,17.051285 
	C84.675056,16.836548 82.870491,16.982292 80.999725,16.982292 
	C79.804474,10.487112 85.642021,14.645592 87.269653,11.682419 
	C86.682533,11.239177 85.955025,10.689952 84.335945,10.124302 
M66.988655,33.589935 
	C65.060593,32.610905 66.618408,27.347330 62.764771,29.451769 
	C60.917103,30.460766 59.687317,33.831497 59.469799,36.248890 
	C59.252827,38.660229 60.962025,41.178486 61.276451,43.718006 
	C61.909889,48.834030 64.370995,50.140007 68.649849,48.041462 
	C67.433281,44.644672 66.237923,41.307083 65.030121,37.934765 
	C70.472832,36.161350 70.472832,36.161350 66.988655,33.589935 
M151.875092,39.021526 
	C153.990250,40.974289 156.105423,42.927052 158.657394,45.283085 
	C155.995911,45.693169 153.897659,46.016468 151.799423,46.339767 
	C151.875519,46.897793 151.951630,47.455818 152.027740,48.013844 
	C155.427994,49.488369 159.271805,50.228462 161.686844,46.749443 
	C166.129074,40.350166 157.619858,40.750858 155.717178,37.355751 
	C157.956207,36.694649 159.772156,36.158466 162.660980,35.305508 
	C155.604782,32.154949 153.220901,33.056164 151.875092,39.021526 
M55.724136,35.610992 
	C55.724136,33.526630 55.724136,31.442268 55.724136,29.357906 
	C55.164776,29.087717 54.605412,28.817528 54.046051,28.547338 
	C53.124146,29.716471 51.532291,30.818514 51.407223,32.067444 
	C51.046589,35.668724 51.223072,39.330227 51.288445,42.966278 
	C51.395432,48.917229 53.933792,50.377216 60.241615,47.340137 
	C54.379570,45.274521 55.826778,40.657906 55.724136,35.610992 
M145.615234,38.798752 
	C146.340103,38.205658 147.078293,37.627953 147.786362,37.015446 
	C148.609955,36.303020 149.407181,35.560101 150.215851,34.830418 
	C149.155884,34.371613 148.095856,33.535370 147.035980,33.535587 
	C145.062851,33.535992 143.089844,34.023457 141.284348,34.284000 
	C141.284348,39.017136 141.284348,43.634106 141.284348,48.251080 
	C141.734772,48.521942 142.185211,48.792805 142.635635,49.063671 
	C143.518250,47.929855 144.872772,46.907352 145.172638,45.636078 
	C145.620163,43.738811 145.324448,41.666237 145.615234,38.798752 
M66.919327,15.377327 
	C66.987999,16.832710 67.056664,18.288092 67.142776,20.112984 
	C68.762650,20.020794 70.117462,19.943687 71.504433,19.864752 
	C71.504433,14.079946 71.504433,8.706791 71.504433,2.999342 
	C69.777229,3.204862 68.407127,3.367890 66.919273,3.544930 
	C66.919273,7.476088 66.919273,10.944539 66.919327,15.377327 
M93.019684,45.162342 
	C93.019684,41.542919 93.019684,37.923496 93.019684,34.304070 
	C92.552109,34.013695 92.084534,33.723320 91.616959,33.432945 
	C90.728027,34.495907 89.204376,35.486031 89.072418,36.635864 
	C88.715469,39.746174 88.838638,42.930840 89.021011,46.071522 
	C89.072685,46.961418 89.981918,47.801517 90.497871,48.664452 
	C91.337799,47.798710 92.177727,46.932968 93.019684,45.162342 
M190.418961,32.354195 
	C188.979416,32.232178 187.454407,31.800219 186.147873,32.160530 
	C185.705719,32.282471 185.317032,34.709988 185.814606,35.533802 
	C186.311691,36.356777 188.583023,37.157475 188.961533,36.797031 
	C189.922592,35.881832 190.259613,34.311302 190.418961,32.354195 
M190.394745,21.673752 
	C190.139923,20.246687 190.113007,18.705851 189.491882,17.461662 
	C189.304733,17.086763 186.989014,17.130135 186.499435,17.705769 
	C185.811920,18.514116 185.375732,20.743670 185.792969,21.048012 
	C186.860291,21.826521 188.458893,21.876671 190.394745,21.673752 
z"/>
<path fill="#EB7D16" opacity="1.000000" stroke="none" 
	d="
M199.000000,29.571537 
	C198.689850,29.972809 198.379761,29.944925 198.069534,29.918541 
	C196.176758,29.757551 194.080688,30.013184 192.488876,29.235960 
	C191.831009,28.914740 191.841431,25.198572 192.257172,25.053082 
	C194.126953,24.398731 196.251419,24.472120 198.642029,24.141537 
	C199.000000,25.714357 199.000000,27.428717 199.000000,29.571537 
z"/>
<path fill="#29A2A3" opacity="1.000000" stroke="none" 
	d="
M103.135452,19.107031 
	C101.702736,19.226881 99.676964,19.447376 99.164055,18.669863 
	C97.744286,16.517664 96.955460,13.949238 94.893852,11.571259 
	C94.893852,13.697574 95.059555,15.843493 94.811462,17.940454 
	C94.713631,18.767342 93.692963,19.485044 93.092514,20.252460 
	C92.510551,19.468250 91.451591,18.699860 91.424980,17.897236 
	C91.266518,13.118545 91.346634,8.331943 91.346634,3.781380 
	C100.339149,0.615785 98.424660,9.458854 101.919807,12.272900 
	C105.525955,9.764810 103.343414,0.870205 111.772804,3.570296 
	C111.772804,8.907013 111.772804,14.325930 111.772804,19.990601 
	C110.500519,19.990601 109.284424,19.990601 107.522614,19.990601 
	C107.522614,17.163418 107.522614,14.617171 107.522614,12.070925 
	C107.179474,11.993483 106.836327,11.916040 106.493187,11.838597 
	C105.406380,14.143152 104.319565,16.447708 103.135452,19.107031 
z"/>
<path fill="#27A1A2" opacity="1.000000" stroke="none" 
	d="
M138.774139,15.165897 
	C137.821304,13.853697 137.040421,12.892634 135.275589,10.720577 
	C135.275589,14.204239 135.414490,16.287941 135.197418,18.333878 
	C135.125168,19.014936 134.140289,19.599167 133.572647,20.227665 
	C133.038055,19.590405 132.057053,18.964901 132.039917,18.314018 
	C131.909973,13.379567 131.968857,8.440144 131.968857,3.650563 
	C140.051682,1.024810 138.650452,9.464466 143.113113,12.207272 
	C143.113113,9.831415 142.908279,7.931817 143.192429,6.108419 
	C143.354477,5.068622 144.314209,4.153134 144.914764,3.181672 
	C145.571991,4.096615 146.756744,4.988947 146.797104,5.930330 
	C146.994370,10.532643 146.886444,15.148038 146.886444,19.587151 
	C142.050003,21.811867 140.294373,19.028492 138.774139,15.165897 
z"/>
<path fill="#EA780C" opacity="1.000000" stroke="none" 
	d="
M10.938607,40.621536 
	C7.233242,41.138577 7.233242,41.138577 6.809301,47.989346 
	C4.412835,49.028301 2.758977,48.989494 2.802562,45.603958 
	C2.860386,41.112415 2.640709,36.607998 2.934338,32.134979 
	C3.012948,30.937460 4.525353,29.834059 5.379533,28.687450 
	C5.845515,28.948837 6.311497,29.210224 6.777478,29.471609 
	C6.908565,31.744024 7.039651,34.016438 7.190567,36.632607 
	C8.928317,36.632607 10.654807,36.632607 12.413553,36.632607 
	C14.657381,34.766487 10.200914,29.200758 16.686262,29.136368 
	C16.686262,35.558121 16.686262,41.785904 16.686262,48.013691 
	C16.316740,48.317753 15.947217,48.621819 15.577694,48.925880 
	C14.712839,47.849571 13.621650,46.881973 13.039458,45.669891 
	C12.283015,44.095036 11.931300,42.325779 10.938607,40.621536 
z"/>
<path fill="#29A2A3" opacity="1.000000" stroke="none" 
	d="
M122.048950,6.475047 
	C120.646988,8.644781 120.645592,10.049391 123.534843,10.147186 
	C125.025246,10.197634 126.498184,10.764109 128.072739,11.118515 
	C126.633430,15.051998 120.173553,10.071487 121.295738,16.959976 
	C122.846390,16.959976 124.491440,16.744087 126.040154,17.037224 
	C127.042915,17.227026 127.904831,18.160931 128.829865,18.761406 
	C127.980583,19.272238 127.153854,20.172985 126.277946,20.223642 
	C123.165535,20.403631 120.036362,20.293900 116.634529,20.293900 
	C116.634529,14.545045 116.634529,9.177974 116.634529,3.866116 
	C123.712265,2.209102 127.384499,2.747095 128.871887,6.033149 
	C126.630089,6.146582 124.560265,6.251313 122.048950,6.475047 
z"/>
<path fill="#27A1A2" opacity="1.000000" stroke="none" 
	d="
M153.262650,12.736338 
	C151.965561,10.529203 150.986374,8.496605 150.007202,6.464006 
	C152.555664,5.308932 155.020523,3.821693 157.690567,3.149595 
	C158.888626,2.848020 160.497330,4.177796 161.919693,4.767304 
	C161.711273,5.331959 161.502869,5.896614 161.294464,6.461268 
	C159.188278,6.461268 157.082077,6.461268 154.484772,6.461268 
	C156.329422,11.161297 166.336273,10.866731 161.378418,17.935173 
	C159.974365,19.936935 155.163422,19.687166 151.868622,20.101809 
	C151.250107,20.179647 150.411560,18.509228 149.265762,17.166510 
	C152.843277,16.983263 155.316284,16.856592 157.789276,16.729921 
	C157.889587,16.271654 157.989899,15.813388 158.090195,15.355122 
	C156.586990,14.540372 155.083786,13.725622 153.262650,12.736338 
z"/>
<path fill="#29A2A3" opacity="1.000000" stroke="none" 
	d="
M59.763382,6.132067 
	C58.261208,6.337402 57.138527,6.602177 55.585423,6.968466 
	C58.500782,10.842134 65.818764,10.348801 63.736553,16.666229 
	C63.142132,18.469692 59.845219,19.969721 57.546795,20.445236 
	C55.577984,20.852558 53.264973,19.596167 51.104187,19.075579 
	C51.250248,18.412937 51.396309,17.750296 51.542370,17.087654 
	C53.977196,17.087654 56.412022,17.087654 58.846848,17.087654 
	C59.007446,16.649607 59.168045,16.211559 59.328644,15.773512 
	C58.013153,14.865478 56.779026,13.796391 55.365555,13.082296 
	C52.239567,11.503027 49.962719,9.574319 51.893440,5.747938 
	C53.192444,3.173518 59.985889,1.727596 62.183048,3.527651 
	C62.683052,3.937285 62.698963,4.937812 62.937691,5.666367 
	C62.006084,5.841413 61.074482,6.016459 59.763382,6.132067 
z"/>
<path fill="#EC821F" opacity="1.000000" stroke="none" 
	d="
M100.909866,43.871090 
	C100.086388,45.749233 99.262955,47.190777 98.439529,48.632324 
	C97.737732,47.250622 96.554573,45.910748 96.430153,44.478874 
	C96.132751,41.056385 96.334137,37.590549 96.334137,34.152267 
	C108.899315,33.996780 109.337845,34.033699 108.880112,39.470875 
	C108.627251,42.474514 111.831261,47.341595 104.945770,49.019535 
	C104.945770,45.943737 105.126579,43.510338 104.878204,41.121563 
	C104.728355,39.680359 103.911568,38.308502 103.394470,36.905479 
	C102.566704,38.254089 101.615135,39.546371 100.964851,40.975727 
	C100.652779,41.661667 100.910324,42.606766 100.909866,43.871090 
z"/>
<path fill="#EB7F19" opacity="1.000000" stroke="none" 
	d="
M34.804420,40.440487 
	C37.151978,33.185276 39.490585,32.173565 47.698692,34.739319 
	C47.698692,39.202530 47.698692,43.760849 47.698692,49.010975 
	C43.696262,48.445557 39.813557,48.443523 36.443119,47.128517 
	C35.241486,46.659687 35.281567,43.008286 34.804420,40.440487 
M42.187630,45.634022 
	C42.858032,42.720726 43.528435,39.807430 44.385784,36.081738 
	C37.933647,38.199493 37.355885,42.200191 42.187630,45.634022 
z"/>
<path fill="#EB7C13" opacity="1.000000" stroke="none" 
	d="
M81.120193,41.956947 
	C80.460121,39.926029 79.800056,38.348953 79.139999,36.771881 
	C78.437164,38.392586 77.405151,39.956955 77.115669,41.648399 
	C76.762032,43.714794 77.031487,45.887821 77.031487,48.014736 
	C76.597244,48.341911 76.163002,48.669086 75.728760,48.996262 
	C74.753387,47.958675 73.011208,46.973499 72.936089,45.874386 
	C72.620064,41.250256 72.628212,36.580914 72.925873,31.954382 
	C72.998848,30.820232 74.614113,29.785313 75.520317,28.704773 
	C75.943596,28.980389 76.366875,29.256006 76.790161,29.531624 
	C76.936295,30.961515 77.082436,32.391407 77.228928,33.824825 
	C84.007126,32.978653 85.174713,34.027370 85.200478,40.856007 
	C85.209221,43.171165 85.201859,45.486385 85.201859,48.346794 
	C79.602135,48.942818 81.598930,44.788395 81.120193,41.956947 
z"/>
<path fill="#EB7F19" opacity="1.000000" stroke="none" 
	d="
M23.907520,48.492699 
	C18.424149,43.471287 19.273357,35.273289 25.301619,33.990189 
	C27.283323,33.568390 30.841114,34.756622 31.745546,36.323898 
	C33.417847,39.221802 31.501816,41.645226 28.184593,42.544956 
	C27.112158,42.835835 26.050043,43.164761 24.875027,44.632885 
	C26.222490,44.939476 27.583235,45.198280 28.913166,45.567947 
	C29.955500,45.857674 30.959686,46.284626 31.980822,46.650612 
	C31.055397,47.389584 30.217897,48.554974 29.184053,48.768139 
	C27.611311,49.092426 25.902485,48.756714 23.907520,48.492699 
z"/>
<path fill="#EB7D16" opacity="1.000000" stroke="none" 
	d="
M113.221710,46.830097 
	C110.719231,40.596306 111.771935,35.885323 115.970802,34.014526 
	C118.740013,32.780712 121.790016,32.505199 123.331108,35.664173 
	C124.867584,38.813694 123.071564,41.031654 120.033028,42.231155 
	C118.821358,42.709480 117.549156,43.034439 116.032890,44.398811 
	C117.522758,44.782928 119.013115,45.165195 120.502335,45.551834 
	C121.445129,45.796608 122.386246,46.047901 123.328110,46.296268 
	C122.530052,47.109577 121.677986,48.656925 120.943741,48.602901 
	C118.422867,48.417435 115.943260,47.671074 113.221710,46.830097 
z"/>
<path fill="#EC821F" opacity="1.000000" stroke="none" 
	d="
M131.625488,45.245895 
	C133.717148,45.463226 135.450974,45.463226 138.643768,45.463226 
	C136.986023,47.031010 136.201630,48.370735 135.120056,48.683815 
	C131.851868,49.629860 128.864258,48.947365 126.844482,45.910217 
	C124.625954,42.574223 125.852196,36.362888 129.492676,34.615238 
	C131.319672,33.738171 133.895523,33.723888 135.904877,34.227863 
	C136.861237,34.467731 138.191772,37.290680 137.762573,38.138264 
	C136.847336,39.945679 134.770462,41.125652 133.418823,42.767872 
	C132.745377,43.586105 128.968323,41.528542 131.625488,45.245895 
z"/>
<path fill="#229FA0" opacity="1.000000" stroke="none" 
	d="
M84.781731,10.132515 
	C85.955025,10.689952 86.682533,11.239177 87.269653,11.682419 
	C85.642021,14.645592 79.804474,10.487112 80.999725,16.982292 
	C82.870491,16.982292 84.675056,16.836548 86.435654,17.051285 
	C87.179634,17.142029 87.831055,17.991552 88.524551,18.496183 
	C87.867142,19.054701 87.232704,20.060610 86.548424,20.095743 
	C83.256783,20.264748 79.951691,20.171740 76.313141,20.171740 
	C76.313141,14.576079 76.313141,9.197412 76.313141,3.137093 
	C79.516548,3.137093 82.767380,3.046951 86.005836,3.207001 
	C86.723106,3.242450 87.396698,4.161781 88.090401,4.674122 
	C87.404686,5.174901 86.776314,5.813035 86.014343,6.131161 
	C85.447876,6.367666 84.623337,5.993656 84.063347,6.236516 
	C82.896286,6.742649 81.828339,7.477306 80.719666,8.118065 
	C81.925095,8.786810 83.130516,9.455556 84.781731,10.132515 
z"/>
<path fill="#EC821F" opacity="1.000000" stroke="none" 
	d="
M67.379898,33.636177 
	C70.472832,36.161350 70.472832,36.161350 65.030121,37.934765 
	C66.237923,41.307083 67.433281,44.644672 68.649849,48.041462 
	C64.370995,50.140007 61.909889,48.834030 61.276451,43.718006 
	C60.962025,41.178486 59.252827,38.660229 59.469799,36.248890 
	C59.687317,33.831497 60.917103,30.460766 62.764771,29.451769 
	C66.618408,27.347330 65.060593,32.610905 67.379898,33.636177 
z"/>
<path fill="#EB801B" opacity="1.000000" stroke="none" 
	d="
M151.820053,38.675533 
	C153.220901,33.056164 155.604782,32.154949 162.660980,35.305508 
	C159.772156,36.158466 157.956207,36.694649 155.717178,37.355751 
	C157.619858,40.750858 166.129074,40.350166 161.686844,46.749443 
	C159.271805,50.228462 155.427994,49.488369 152.027740,48.013844 
	C151.951630,47.455818 151.875519,46.897793 151.799423,46.339767 
	C153.897659,46.016468 155.995911,45.693169 158.657394,45.283085 
	C156.105423,42.927052 153.990250,40.974289 151.820053,38.675533 
z"/>
<path fill="#ED8B2E" opacity="1.000000" stroke="none" 
	d="
M55.723999,36.083992 
	C55.826778,40.657906 54.379570,45.274521 60.241615,47.340137 
	C53.933792,50.377216 51.395432,48.917229 51.288445,42.966278 
	C51.223072,39.330227 51.046589,35.668724 51.407223,32.067444 
	C51.532291,30.818514 53.124146,29.716471 54.046051,28.547338 
	C54.605412,28.817528 55.164776,29.087717 55.724136,29.357906 
	C55.724136,31.442268 55.724136,33.526630 55.723999,36.083992 
z"/>
<path fill="#EB801B" opacity="1.000000" stroke="none" 
	d="
M145.480087,39.233498 
	C145.324448,41.666237 145.620163,43.738811 145.172638,45.636078 
	C144.872772,46.907352 143.518250,47.929855 142.635635,49.063671 
	C142.185211,48.792805 141.734772,48.521942 141.284348,48.251080 
	C141.284348,43.634106 141.284348,39.017136 141.284348,34.284000 
	C143.089844,34.023457 145.062851,33.535992 147.035980,33.535587 
	C148.095856,33.535370 149.155884,34.371613 150.215851,34.830418 
	C149.407181,35.560101 148.609955,36.303020 147.786362,37.015446 
	C147.078293,37.627953 146.340103,38.205658 145.480087,39.233498 
z"/>
<path fill="#27A1A2" opacity="1.000000" stroke="none" 
	d="
M66.919296,14.895159 
	C66.919273,10.944539 66.919273,7.476088 66.919273,3.544930 
	C68.407127,3.367890 69.777229,3.204862 71.504433,2.999342 
	C71.504433,8.706791 71.504433,14.079946 71.504433,19.864752 
	C70.117462,19.943687 68.762650,20.020794 67.142776,20.112984 
	C67.056664,18.288092 66.987999,16.832710 66.919296,14.895159 
z"/>
<path fill="#EA780C" opacity="1.000000" stroke="none" 
	d="
M93.018669,45.614784 
	C92.177727,46.932968 91.337799,47.798710 90.497871,48.664452 
	C89.981918,47.801517 89.072685,46.961418 89.021011,46.071522 
	C88.838638,42.930840 88.715469,39.746174 89.072418,36.635864 
	C89.204376,35.486031 90.728027,34.495907 91.616959,33.432945 
	C92.084534,33.723320 92.552109,34.013695 93.019684,34.304070 
	C93.019684,37.923496 93.019684,41.542919 93.018669,45.614784 
z"/>
<path fill="#EC821F" opacity="1.000000" stroke="none" 
	d="
M190.632721,32.678673 
	C190.259613,34.311302 189.922592,35.881832 188.961533,36.797031 
	C188.583023,37.157475 186.311691,36.356777 185.814606,35.533802 
	C185.317032,34.709988 185.705719,32.282471 186.147873,32.160530 
	C187.454407,31.800219 188.979416,32.232178 190.632721,32.678673 
z"/>
<path fill="#EB801B" opacity="1.000000" stroke="none" 
	d="
M190.119873,21.945938 
	C188.458893,21.876671 186.860291,21.826521 185.792969,21.048012 
	C185.375732,20.743670 185.811920,18.514116 186.499435,17.705769 
	C186.989014,17.130135 189.304733,17.086763 189.491882,17.461662 
	C190.113007,18.705851 190.139923,20.246687 190.119873,21.945938 
z"/>
<path fill="#FDF0E5" opacity="1.000000" stroke="none" 
	d="
M41.799232,45.763142 
	C37.355885,42.200191 37.933647,38.199493 44.385784,36.081738 
	C43.528435,39.807430 42.858032,42.720726 41.799232,45.763142 
z"/>
</svg>